<mxfile host="app.diagrams.net" modified="2024-05-30T05:40:26.147Z" agent="Mozilla/5.0 (X11; Linux x86_64) AppleWebKit/537.36 (KHTML, like Gecko) Chrome/125.0.0.0 Safari/537.36 Edg/125.0.0.0" version="24.4.10" etag="dhcziP5wQwuaZpwK_Cia" type="github">
  <diagram name="Page-1" id="eoA-ZzbddIzOJqnBHZ7x">
    <mxGraphModel>
      <root>
        <mxCell id="0" />
        <mxCell id="1" parent="0" />
      </root>
    </mxGraphModel>
  </diagram>
</mxfile>
